# AST/ASF file generated using VICON BodyLanguage
# -----------------------------------------------
:version 1.10
:name VICON
:units
  mass 1.0
  length 0.45
  angle deg
:documentation
   .ast/.asf automatically generated from VICON data using
   VICON BodyBuilder and BodyLanguage model FoxedUp or BRILLIANT.MOD
:root
   order TX TY TZ RX RY RZ
   axis XYZ
   position 0 0 0  
   orientation 0 0 0 
:bonedata
  begin
     id 1 
     name lhipjoint
     direction 0.604623 -0.733026 0.311616 
     length 2.56391 
     axis 0 0 0  XYZ
  end
  begin
     id 2 
     name lfemur
     direction 0.34202 -0.939693 0  
     length 7.75596  
     axis 0 0 20  XYZ
    dof rx ry rz
    limits (-160.0 20.0)
           (-70.0 70.0)
           (-60.0 70.0)
  end
  begin
     id 3 
     name ltibia
     direction 0.34202 -0.939693 0   
     length 7.63697   
     axis 0 0 20   XYZ
    dof rx
    limits (-10.0 170.0)
  end
  begin
     id 4 
     name lfoot
     direction 0.048038 -0.131983 0.990087   
     length 1.94388   
     axis -90 7.62852e-016 20   XYZ
    dof rx rz
    limits (-45.0 90.0)
           (-70.0 20.0)
  end
  begin
     id 5 
     name ltoes
     direction 1.53565e-011 -4.21929e-011 1   
     length 0.984801   
     axis -90 7.62852e-016 20   XYZ
    dof rx
    limits (-90.0 20.0)
  end
  begin
     id 6 
     name rhipjoint
     direction -0.609162 -0.729836 0.31026   
     length 2.57511  
     axis 0 0 0  XYZ 
  end
  begin
     id 7 
     name rfemur
     direction -0.34202 -0.939693 0   
     length 7.60772   
     axis 0 0 -20   XYZ
    dof rx ry rz
    limits (-160.0 20.0)
           (-70.0 70.0)
           (-70.0 60.0)
  end
  begin
     id 8 
     name rtibia
     direction -0.34202 -0.939693 0   
     length 7.68497   
     axis 0 0 -20   XYZ
    dof rx
    limits (-10.0 170.0)
 end
 begin
     id 9 
     name rfoot
     direction -0.0969806 -0.266452 0.958957   
     length 2.01398  
     axis -90 -7.62852e-016 -20   XYZ
    dof rx rz
    limits (-45.0 90.0)
           (-20.0 70.0)
  end
  begin
     id 10 
     name rtoes
     direction -1.53552e-011 -4.21869e-011 1   
     length 1.00896   
     axis -90 -7.62852e-016 -20   XYZ
    dof rx
    limits (-90.0 20.0)
  end
  begin
     id 11 
     name lowerback
     direction 0.0305179 0.993923 -0.10576   
     length 2.09077   
     axis 0 0 0   XYZ
    dof rx ry rz
    limits (-20.0 45.0)
           (-30.0 30.0)
           (-30.0 30.0)
  end
  begin
     id 12 
     name upperback
     direction -0.0137909 0.999867 0.00873764   
     length 2.08918   
     axis 0 0 0   XYZ
    dof rx ry rz
    limits (-20.0 45.0)
           (-30.0 30.0)
           (-30.0 30.0)
  end
  begin
     id 13 
     name thorax
     direction -0.0278536 0.997917 0.0581839   
     length 2.11939   
     axis 0 0 0   XYZ
    dof rx ry rz
    limits (-20.0 45.0)
           (-30.0 30.0)
           (-30.0 30.0)
  end
  begin
     id 14 
     name lowerneck
     direction 0.0138689 0.999837 -0.0116016   
     length 1.74353   
     axis 0 0 0   XYZ
    dof rx ry rz
    limits (-20.0 45.0)
           (-30.0 30.0)
           (-30.0 30.0)
  end
  begin
     id 15 
     name upperneck
     direction -0.00992078 0.999667 0.0238149   
     length 1.71734   
     axis 0 0 0   XYZ
    dof rx ry rz
    limits (-20.0 45.0)
           (-30.0 30.0)
           (-30.0 30.0)
  end
  begin
     id 16
     name head
     direction -0.00530555 0.999941 0.00944937  
     length 1.78249  
     axis 0 0 0   XYZ
    dof rx ry rz
    limits (-20.0 45.0)
           (-30.0 30.0)
           (-30.0 30.0)
  end
  begin
     id 17 
     name lclavicle
     direction 0.929165 0.366864 0.0454227  
     length 3.65686  
     axis 0 0 0   XYZ
    dof ry rz
    limits (-20.0 10.0)
           (0.0 20.0)
  end
  begin
     id 18 
     name lhumerus
     direction 1 -4.4897e-011 3.05413e-018   
     length 5.15218   
     axis -180 -30 -90   XYZ
    dof rx ry rz
    limits (-60.0 90.0)
           (-90.0 90.0)
           (-90.0 90.0)
  end
  begin
     id 19
     name lradius
     direction 1 -4.48963e-011 5.40022e-027   
     length 3.49459   
     axis -180 -30 -90   XYZ
    dof rx
    limits (-10.0 170.0)
  end
  begin
     id 20
     name lwrist
     direction 1 -4.48966e-011 9.79369e-027   
     length 1.7473   
     axis -4.67603e-015 90 90   XYZ
    dof ry
    limits (-180.0 0.0)
 end
  begin
     id 21 
     name lhand
     direction 1 -4.48996e-011 1.9593e-026   
     length 0.512466   
     axis -1.24987e-014 90 90   XYZ
    dof rx rz
    limits (-90.0 90.0)
           (-45.0 45.0)
  end
  begin
     id 22 
     name lfingers
     direction 1 -4.48931e-011 3.91616e-026   
     length 0.413163   
     axis -2.49979e-014 90 90   XYZ
    dof rx
    limits (0.0 90.0)
  end
  begin
     id 23
     name lthumb
     direction 0.707107 -6.34959e-011 0.707107   
     length 0.593222   
     axis -90 45 5.69224e-014   XYZ
    dof rx rz
    limits (-45.0 45.0)
           (-45.0 45.0)
  end
  begin
     id 24 
     name rclavicle
     direction -0.951469 0.307727 0.00346571   
     length 3.42864  
     axis 0 0 0   XYZ 
    dof ry rz
    limits (-10.0 20.0)
           (-20.0 0.0)
  end
  begin
     id 25 
     name rhumerus
     direction -1 -4.48967e-011 2.58643e-027  
     length 5.44344   
     axis -180 30 90   XYZ
    dof rx ry rz
    limits (-90.0 60.0)
           (-90.0 90.0)
           (-90.0 90.0)
  end
  begin
     id 26 
     name rradius
     direction -1 -4.48973e-011 4.26485e-028   
     length 3.58403   
     axis -180 30 90   XYZ
    dof rx
    limits (-10.0 170.0)
  end
  begin
     id 27 
     name rwrist
     direction -1 -4.48962e-011 9.79331e-027   
     length 1.79202   
     axis -4.67603e-015 -90 -90   XYZ
    dof ry
    limits (-180.0 0.0)
  end
  begin
     id 28
     name rhand
     direction -1 -4.48975e-011 1.95891e-026   
     length 0.34249   
     axis -1.24987e-014 -90 -90   XYZ
    dof rx rz
    limits (-90.0 90.0)
           (-45.0 45.0)
  end
  begin
     id 29
     name rfingers
     direction -1 -4.48893e-011 3.9147e-026   
     length 0.276124   
     axis -2.49979e-014 -90 -90   XYZ
    dof rx
    limits (0.0 90.0)
  end
  begin
     id 30
     name rthumb
     direction -0.707107 -6.34898e-011 0.707107   
     length 0.39646   
     axis -90 -45 -5.69224e-014   XYZ
    dof rx rz
    limits (-45.0 45.0)
           (-45.0 45.0)
  end
:hierarchy
  begin
    root lhipjoint rhipjoint lowerback
    lhipjoint lfemur
    lfemur ltibia
    ltibia lfoot
    lfoot ltoes
    rhipjoint rfemur
    rfemur rtibia
    rtibia rfoot
    rfoot rtoes
    lowerback upperback
    upperback thorax
    thorax lowerneck lclavicle rclavicle
    lowerneck upperneck
    upperneck head
    lclavicle lhumerus
    lhumerus lradius
    lradius lwrist
    lwrist lhand lthumb
    lhand lfingers
    rclavicle rhumerus
    rhumerus rradius
    rradius rwrist
    rwrist rhand rthumb
    rhand rfingers
  end

#!OML:ASF H:\charlestonDancing\Project 1\Capture day 1\Session 1\femaleDancer.ASF
:FULLY-SPECIFIED
:DEGREES
171
root -2.72227 17.0656 2.53107 -174.388 25.2935 -540.073
lowerback 16.7292 -1.27023 5.09966
upperback -0.0110282 -0.348414 1.85281
thorax -9.46246 -0.288373 -0.809895
lowerneck 0.845407 -9.19103 -9.07298
upperneck -2.29786 -12.2415 11.5796
head 0.477485 -6.13423 4.7583
rclavicle 6.95746e-015 -3.33958e-014
rhumerus -2.44892 -7.22508 -38.5525
rradius 69.3943
rwrist -14.8387
rhand -12.382 -28.398
rfingers 7.12502
rthumb 13.6888 -57.9278
lclavicle 6.95746e-015 -3.33958e-014
lhumerus -34.058 2.94529 54.8555
lradius 89.7866
lwrist 31.2344
lhand -8.89552 25.8873
lfingers 7.12502
lthumb 17.047 55.1594
rfemur -27.7459 -12.4303 10.572
rtibia 52.826
rfoot -12.0651 -17.9672
rtoes -40.58
lfemur -31.749 31.1814 -28.9325
ltibia 54.1539
lfoot -36.4961 23.3026
ltoes 11.241
172
root -2.65562 17.0198 2.54988 -174.443 29.2686 -540.916
lowerback 16.504 -1.26367 4.37842
upperback -0.0313423 -0.546759 1.58208
thorax -9.35882 -0.366621 -0.648167
lowerneck 0.606555 -8.17086 -8.56679
upperneck -2.35167 -10.8442 10.8752
head 0.286614 -5.43034 4.51822
rclavicle -1.19271e-014 7.95139e-016
rhumerus -3.2509 -7.78951 -39.7626
rradius 68.1693
rwrist -14.4728
rhand -10.5636 -27.8791
rfingers 7.12502
rthumb 15.4409 -57.2824
lclavicle -1.19271e-014 7.95139e-016
lhumerus -34.146 3.16045 55.003
lradius 89.6221
lwrist 30.7756
lhand -8.5915 25.7809
lfingers 7.12502
lthumb 17.3396 55.0274
rfemur -28.6747 -11.6807 10.0793
rtibia 51.9547
rfoot -13.9439 -16.0335
rtoes -40.6172
lfemur -32.4905 31.9597 -29.3465
ltibia 55.6289
lfoot -36.7937 24.0578
ltoes 12.6776
173
root -2.60869 16.9904 2.55729 -175.213 32.8134 -541.944
lowerback 16.6795 -1.46667 3.5993
upperback 0.106658 -0.994801 1.32638
thorax -9.31359 -0.553117 -0.373332
lowerneck 0.233759 -7.34929 -8.36881
upperneck -2.21798 -9.72341 10.4821
head 0.246489 -4.85929 4.38869
rclavicle 2.5842e-014 -2.8625e-014
rhumerus -3.8356 -7.89027 -40.99
rradius 66.7416
rwrist -15.0834
rhand -10.3958 -27.9538
rfingers 7.12502
rthumb 15.6025 -57.3445
lclavicle 2.5842e-014 -2.8625e-014
lhumerus -34.2039 3.62089 55.2166
lradius 89.5599
lwrist 30.5571
lhand -8.42791 25.7563
lfingers 7.12502
lthumb 17.4971 54.9889
rfemur -29.1404 -11.533 9.38756
rtibia 51.2689
rfoot -15.4193 -13.8274
rtoes -39.4178
lfemur -32.1131 31.6245 -29.1904
ltibia 57.2721
lfoot -38.6935 23.183
ltoes 18.093
174
root -2.57893 16.9604 2.55883 -176.056 36.0722 -542.098
lowerback 17.2834 -1.81521 3.50712
upperback 0.383539 -1.43497 1.32217
thorax -9.36234 -0.749005 -0.208803
lowerneck 0.373942 -6.33052 -7.78539
upperneck -2.50147 -8.35433 9.43392
head -0.0703822 -4.17766 4.45361
rclavicle 1.06946e-013 -4.6118e-014
rhumerus -4.47398 -7.6938 -42.257
rradius 65.2099
rwrist -15.9775
rhand -8.84834 -27.8838
rfingers 7.12502
rthumb 17.0924 -57.152
lclavicle 1.06946e-013 -4.6118e-014
lhumerus -34.1554 4.25924 55.7273
lradius 89.5367
lwrist 30.4564
lhand -8.48354 25.751
lfingers 7.12502
lthumb 17.4435 54.9883
rfemur -29.183 -10.4154 9.33671
rtibia 50.8368
rfoot -16.0846 -12.0348
rtoes -38.4377
lfemur -30.7383 30.2959 -27.567
ltibia 59.0712
lfoot -37.5947 24.3639
ltoes 14.002
175
root -2.54533 16.9388 2.56439 -175.786 39.1449 -540.237
lowerback 18.0401 -2.17736 4.85733
upperback 0.677211 -1.52366 1.70856
thorax -9.49722 -0.820421 -0.518318
lowerneck 0.735091 -5.35365 -7.17224
upperneck -2.90788 -7.03935 8.85268
head -0.439169 -3.5292 4.18088
rclavicle -2.88238e-014 1.82882e-014
rhumerus -5.67543 -7.89291 -43.4777
rradius 63.6874
rwrist -16.4365
rhand -7.29001 -27.8659
rfingers 7.12502
rthumb 18.5919 -56.9974
lclavicle -2.88238e-014 1.82882e-014
lhumerus -33.5155 4.56207 56.6434
lradius 89.3506
lwrist 30.3076
lhand -8.73419 25.7028
lfingers 7.12502
lthumb 17.2023 54.9614
rfemur -29.0851 -8.92875 11.0848
rtibia 50.4923
rfoot -16.207 -10.3826
rtoes -38.4508
lfemur -29.0816 28.4727 -23.9704
ltibia 61.04
lfoot -36.3851 23.7628
ltoes 11.853
176
root -2.55107 16.9382 2.53315 -176.37 41.8588 -540.228
lowerback 18.5364 -2.57941 5.41822
upperback 0.819877 -1.91615 1.52999
thorax -9.66282 -1.03203 -0.913731
lowerneck 0.564167 -4.45237 -6.02263
upperneck -2.28566 -5.86535 7.44398
head -0.393476 -2.93939 3.46582
rclavicle 1.11319e-014 -4.13472e-014
rhumerus -7.14363 -8.37092 -44.8571
rradius 62.174
rwrist -16.25
rhand -5.63943 -28.2754
rfingers 7.12502
rthumb 20.1789 -57.2473
lclavicle 1.11319e-014 -4.13472e-014
lhumerus -32.7285 4.7215 57.6455
lradius 89.1849
lwrist 30.1291
lhand -9.03596 25.578
lfingers 7.12502
lthumb 16.9118 54.8616
rfemur -29.0822 -8.58048 11.0729
rtibia 50.178
rfoot -16.3428 -8.13749
rtoes -38.785
lfemur -27.4072 25.8556 -22.4119
ltibia 62.8093
lfoot -34.2799 23.0324
ltoes 10.0883
177
root -2.54208 16.9661 2.49188 -176.954 44.5724 -540.355
lowerback 18.6217 -2.97957 5.34572
upperback 0.977794 -2.46561 1.43773
thorax -9.56855 -1.2866 -0.825956
lowerneck 0.99498 -3.55872 -5.70051
upperneck -2.1501 -4.69334 7.16835
head -0.527092 -2.3615 3.32837
rclavicle -2.28602e-014 -9.54166e-015
rhumerus -8.44716 -8.38777 -46.4288
rradius 60.6818
rwrist -15.9344
rhand -5.5718 -28.2937
rfingers 7.12502
rthumb 20.2439 -57.2587
lclavicle -2.28602e-014 -9.54166e-015
lhumerus -32.0921 5.12071 58.5762
lradius 89.039
lwrist 30.3994
lhand -9.81409 25.5266
lfingers 7.12502
lthumb 16.1627 54.8727
rfemur -28.905 -7.93266 11.0258
rtibia 49.5696
rfoot -16.2083 -6.16377
rtoes -38.8016
lfemur -25.714 23.0448 -21.109
ltibia 64.4053
lfoot -31.6753 21.6631
ltoes 9.72246
178
root -2.54365 16.9991 2.44769 -176.947 47.7215 -539.808
lowerback 18.3224 -3.26272 5.19206
upperback 1.39804 -2.86425 1.66281
thorax -8.94187 -1.44165 -0.416728
lowerneck 1.11502 -2.49961 -5.37068
upperneck -2.03901 -3.28626 6.76389
head -0.623729 -1.65921 3.13089
rclavicle -2.60408e-014 -3.18055e-015
rhumerus -9.17978 -8.16348 -47.9355
rradius 59.1768
rwrist -15.9411
rhand -5.77485 -28.4342
rfingers 7.12502
rthumb 20.0488 -57.4199
lclavicle -2.60408e-014 -3.18055e-015
lhumerus -30.9936 6.0895 59.6934
lradius 88.6493
lwrist 30.6509
lhand -10.0343 25.2482
lfingers 7.12502
lthumb 15.9506 54.6114
rfemur -28.8423 -6.4001 11.5015
rtibia 48.756
rfoot -15.6643 -4.63173
rtoes -39.3563
lfemur -24.1606 20.5408 -19.6066
ltibia 65.6561
lfoot -28.7795 19.7047
ltoes 9.39324
179
root -2.52937 17.038 2.40421 -175.868 50.9555 -537.797
lowerback 18.3951 -3.34305 6.02095
upperback 1.61535 -2.74903 1.97642
thorax -8.76386 -1.39481 -0.578275
lowerneck 1.23271 -1.33431 -4.12899
upperneck -1.42116 -1.75809 5.443
head -0.567169 -0.894516 2.44363
rclavicle 5.74488e-014 4.05521e-014
rhumerus -11.0065 -8.423 -49.1522
rradius 57.8297
rwrist -16.4739
rhand -5.85978 -28.9443
rfingers 7.12502
rthumb 19.9671 -57.9384
lclavicle 5.74488e-014 4.05521e-014
lhumerus -29.4864 6.41039 60.8199
lradius 87.792
lwrist 29.4934
lhand -9.10864 25.1273
lfingers 7.12502
lthumb 16.8419 54.4169
rfemur -28.3713 -3.96008 12.9957
rtibia 47.6027
rfoot -15.0878 -4.13232
rtoes -41.1469
lfemur -22.4963 18.4918 -17.1718
ltibia 66.6701
lfoot -25.9072 16.9749
ltoes 6.24074
180
root -2.54671 17.0924 2.31927 -177.52 54.0755 -539.783
lowerback 18.1303 -3.25803 4.99085
upperback 1.5776 -2.9488 1.48084
thorax -8.64112 -1.47819 -0.4934
lowerneck 1.04588 -0.54887 -3.9128
upperneck -0.332368 -0.734361 5.42851
head -0.246611 -0.375353 2.38548
rclavicle 3.18055e-015 -3.18055e-015
rhumerus -13.1666 -8.8328 -50.3401
rradius 56.5278
rwrist -17.5468
rhand -6.21387 -29.1206
rfingers 7.12502
rthumb 19.6268 -58.1499
lclavicle 3.18055e-015 -3.18055e-015
lhumerus -28.3246 5.43497 61.8303
lradius 87.3771
lwrist 30.2557
lhand -9.73605 25.6994
lfingers 7.12502
lthumb 16.2378 55.0395
rfemur -28.2954 -2.35244 11.4392
rtibia 46.4295
rfoot -15.236 -2.65948
rtoes -41.0948
lfemur -21.0691 15.977 -18.2544
ltibia 67.1725
lfoot -24.2916 13.9845
ltoes 1.72659
181
root -2.56766 17.1533 2.23258 -178.912 57.3436 -541.118
lowerback 17.9509 -3.13383 4.29731
upperback 1.60937 -2.99094 1.116
thorax -8.49143 -1.48802 -0.495022
lowerneck 1.34523 0.20716 -3.65211
upperneck 0.273178 0.256857 5.54949
head -0.158067 0.121495 2.37216
rclavicle -4.16454e-014 7.15625e-015
rhumerus -15.4374 -9.40789 -51.4167
rradius 55.2779
rwrist -18.3563
rhand -6.26319 -29.6159
rfingers 7.12502
rthumb 19.5793 -58.65
lclavicle -4.16454e-014 7.15625e-015
lhumerus -27.07 4.6178 62.5593
lradius 86.727
lwrist 29.8902
lhand -9.08483 25.1337
lfingers 7.12502
lthumb 16.8648 54.4214
rfemur -28.1277 -0.138956 10.358
rtibia 45.1372
rfoot -15.4725 -0.734586
rtoes -37.6893
lfemur -19.5173 13.782 -18.9068
ltibia 67.4194
lfoot -22.9062 10.6073
ltoes -2.27321
182
root -2.59389 17.175 2.14866 -180.539 60.7586 -542.517
lowerback 17.8236 -2.8782 3.64915
upperback 1.7151 -2.83625 0.760752
thorax -8.28382 -1.40064 -0.560478
lowerneck 1.69413 0.962518 -2.4713
upperneck 0.978854 1.2535 4.40523
head -0.028833 0.62417 1.77771
rclavicle 3.80673e-014 -2.62396e-014
rhumerus -17.8669 -10.3463 -52.1811
rradius 54.0074
rwrist -18.0961
rhand -7.34765 -29.6457
rfingers 7.12502
rthumb 18.5364 -58.7825
lclavicle 3.80673e-014 -2.62396e-014
lhumerus -25.7277 3.57034 63.2833
lradius 86.3434
lwrist 29.5381
lhand -10.3756 25.823
lfingers 7.12502
lthumb 15.622 55.2122
rfemur -27.6072 1.79963 9.66014
rtibia 43.8539
rfoot -15.5534 -0.821324
rtoes -42.5562
lfemur -18.0548 11.9346 -19.6048
ltibia 67.5301
lfoot -21.1208 7.83399
ltoes -8.64375
183
root -2.62058 17.2377 2.05509 -182.289 64.2138 -543.94
lowerback 17.6652 -2.58787 3.07446
upperback 1.84864 -2.61166 0.439371
thorax -8.0302 -1.2798 -0.647446
lowerneck 1.35946 1.48145 -1.74511
upperneck 2.09716 1.93692 3.94703
head 0.359767 0.983295 1.50786
rclavicle 6.09275e-014 -1.11319e-014
rhumerus -20.3571 -11.4005 -52.7534
rradius 52.6846
rwrist -17.1446
rhand -8.86491 -29.5164
rfingers 7.12502
rthumb 17.0765 -58.7859
lclavicle 6.09275e-014 -1.11319e-014
lhumerus -24.371 2.57979 63.8524
lradius 86.005
lwrist 29.0987
lhand -10.2989 26.269
lfingers 7.12502
lthumb 15.6958 55.6524
rfemur -27.3252 4.22573 8.9313
rtibia 42.4111
rfoot -14.8421 0.648664
rtoes -41.8917
lfemur -16.5179 10.2262 -20.2354
ltibia 67.3827
lfoot -19.4357 4.66277
ltoes -12.7783
